<?xml version="1.0" encoding="UTF-8"?>
<svg width="512" height="512" viewBox="0 0 512 512" xmlns="http://www.w3.org/2000/svg">
  <defs>
    <!-- VSCode-style gradient -->
    <linearGradient id="bgGradient" x1="0%" y1="0%" x2="100%" y2="100%">
      <stop offset="0%" style="stop-color:#007ACC"/>
      <stop offset="100%" style="stop-color:#005a9e"/>
    </linearGradient>
    
    <!-- White color for the wrench -->
    <style>
      .wrench-white { fill: #FFFFFF; }
    </style>
  </defs>
  
  <!-- Background with rounded corners (VSCode style) -->
  <rect x="0" y="0" width="512" height="512" rx="85" ry="85" fill="url(#bgGradient)"/>
  
  <!-- Wrench symbol -->
  <g transform="translate(256,256)">
    <!-- Main wrench body (rotated 45 degrees) -->
    <g transform="rotate(45)">
      <!-- Wrench handle -->
      <rect x="-120" y="-20" width="200" height="40" rx="20" ry="20" class="wrench-white"/>
      
      <!-- Wrench head (open end) -->
      <g transform="translate(80,0)">
        <!-- Outer shape of wrench head -->
        <path d="M0,-35 L35,-35 Q50,-35 50,-20 L50,20 Q50,35 35,35 L0,35 L0,20 L30,20 L30,-20 L0,-20 Z" 
              class="wrench-white"/>
        
        <!-- Inner opening of wrench -->
        <rect x="5" y="-25" width="25" height="50" rx="12" ry="12" fill="url(#bgGradient)"/>
      </g>
      
      <!-- Handle grip hole -->
      <circle cx="-80" cy="0" r="15" fill="url(#bgGradient)"/>
      
      <!-- Additional detail - handle texture lines -->
      <rect x="-40" y="-8" width="3" height="16" rx="1.5" class="wrench-white" opacity="0.3"/>
      <rect x="-30" y="-8" width="3" height="16" rx="1.5" class="wrench-white" opacity="0.3"/>
      <rect x="-20" y="-8" width="3" height="16" rx="1.5" class="wrench-white" opacity="0.3"/>
    </g>
  </g>
  
  <!-- Subtle highlight for depth (optional) -->
  <rect x="0" y="0" width="512" height="256" rx="85" ry="85" 
        fill="url(#bgGradient)" opacity="0.1" 
        style="mix-blend-mode: overlay"/>
</svg>